<svg xmlns="http://www.w3.org/2000/svg" xmlns:xlink="http://www.w3.org/1999/xlink" width="500" zoomAndPan="magnify" viewBox="0 0 375 374.999991" height="500" preserveAspectRatio="xMidYMid meet" version="1.0"><defs><clipPath id="f3376c3814"><path d="M 14.300781 14.300781 L 360.800781 14.300781 L 360.800781 360.800781 L 14.300781 360.800781 Z M 14.300781 14.300781 " clip-rule="nonzero"/></clipPath><clipPath id="24b63bf1ea"><path d="M 106 267 L 284.644531 267 L 284.644531 337.570312 L 106 337.570312 Z M 106 267 " clip-rule="nonzero"/></clipPath><clipPath id="c9a1d43117"><path d="M 176 19.570312 L 184 19.570312 L 184 30 L 176 30 Z M 176 19.570312 " clip-rule="nonzero"/></clipPath><clipPath id="8008f58b9b"><path d="M 196 19.570312 L 202 19.570312 L 202 30 L 196 30 Z M 196 19.570312 " clip-rule="nonzero"/></clipPath><clipPath id="67f37e8a98"><path d="M 47.613281 131 L 65 131 L 65 143 L 47.613281 143 Z M 47.613281 131 " clip-rule="nonzero"/></clipPath><clipPath id="594c3882ad"><path d="M 318 160.503906 L 327.285156 160.503906 L 327.285156 168.75 L 318 168.75 Z M 318 160.503906 " clip-rule="nonzero"/></clipPath></defs><g clip-path="url(#f3376c3814)"><path fill="#008037" d="M 187.550781 360.800781 C 92.050781 360.800781 14.300781 283.050781 14.300781 187.550781 C 14.300781 92.050781 92.050781 14.300781 187.550781 14.300781 C 283.050781 14.300781 360.800781 92.050781 360.800781 187.550781 C 360.800781 283.050781 283.050781 360.800781 187.550781 360.800781 Z M 187.550781 16.859375 C 93.414062 16.859375 16.859375 93.414062 16.859375 187.550781 C 16.859375 281.6875 93.414062 358.242188 187.550781 358.242188 C 281.6875 358.242188 358.242188 281.6875 358.242188 187.550781 C 358.242188 93.414062 281.6875 16.859375 187.550781 16.859375 Z M 187.550781 16.859375 " fill-opacity="1" fill-rule="nonzero"/></g><path fill="#008037" d="M 281.191406 290.617188 C 274.96875 291.265625 268.484375 291.5 267.707031 289.34375 C 265.550781 283.332031 257.96875 281.5625 258.765625 280.808594 C 259.078125 280.511719 261.769531 280.660156 266.242188 281.472656 C 268.441406 281.871094 275.003906 284.003906 277.183594 284.464844 C 278.300781 284.699219 279.234375 285.085938 280.027344 285.492188 C 283.234375 287.128906 288.75 287.636719 292.976562 288.648438 C 295.269531 289.199219 297.175781 290.488281 298.148438 290.804688 C 297.019531 289.4375 295.292969 288.953125 294.367188 288.601562 C 292.722656 287.972656 291.289062 287.355469 289.785156 287.089844 C 287.28125 286.65625 285.714844 286.511719 283.890625 285.613281 C 279.484375 283.441406 277.015625 282.417969 272.742188 281.761719 C 272.925781 281.292969 280.425781 280.671875 283.625 280.804688 C 286.976562 280.9375 292.445312 281.777344 296.5 281.554688 C 297.964844 281.472656 299.210938 281.21875 300.59375 281.070312 C 301.976562 280.921875 303.632812 281.320312 305.152344 281.664062 C 303.832031 280.863281 301.128906 280.582031 299.054688 280.640625 C 296.980469 280.699219 295.078125 280.992188 292.882812 280.871094 C 289.664062 280.6875 286.511719 279.648438 283.277344 279.425781 C 279.035156 279.136719 275.773438 280.332031 271.523438 280.066406 C 269.15625 279.914062 266.945312 279.210938 264.5625 278.886719 C 258.625 278.070312 248.773438 279.324219 240.207031 278.839844 C 235.78125 278.582031 230.730469 278.664062 226.957031 277.570312 C 223.90625 276.6875 217.628906 272.757812 217.300781 272.230469 C 216.355469 270.722656 220.632812 269.613281 223.90625 269.941406 C 227.183594 270.273438 229.660156 270.707031 232.941406 271.023438 C 236.917969 271.40625 241.167969 271.273438 245.148438 271.085938 C 248.417969 270.933594 255.238281 270.691406 258.527344 270.964844 C 264.257812 271.425781 266.5 272.363281 272.222656 272.855469 C 268.992188 272.148438 265.707031 271.5 262.53125 270.746094 C 258.699219 269.835938 253.300781 269.972656 251.085938 269.976562 C 228.820312 270.089844 229.828125 266.300781 216.542969 265.472656 C 210.386719 265.101562 199.609375 264.972656 193.429688 265.167969 C 189.375 265.289062 185.320312 266.191406 181.257812 266.230469 C 179.164062 266.246094 177.070312 266.257812 174.972656 266.273438 C 173.964844 266.277344 172.714844 264.839844 172.308594 265.214844 C 170.390625 265.019531 165.449219 265.980469 165.207031 266 C 162.414062 266.21875 159.261719 266.109375 156.597656 266.535156 C 154.445312 266.875 150.558594 267.8125 149.320312 268.78125 C 146.324219 270.0625 143.398438 271.507812 139.625 272.160156 C 138.042969 272.433594 136.355469 272.558594 134.824219 272.902344 C 131.441406 273.65625 129.304688 275.320312 126.097656 276.242188 C 122.953125 277.144531 119.160156 277.238281 115.621094 277.144531 C 112.089844 277.050781 108.554688 276.796875 105 277.105469 C 101.445312 277.410156 97.742188 278.425781 96.402344 280.011719 C 99.613281 278.058594 105.605469 277.847656 110.542969 278.15625 C 115.480469 278.460938 120.773438 279.050781 125.4375 277.964844 C 128.894531 277.164062 131.414062 275.535156 135.023438 274.921875 C 136.296875 274.703125 137.894531 274.667969 138.699219 275.140625 C 139.425781 275.566406 139.027344 276.195312 138.769531 276.753906 C 137.5 279.476562 135 279.847656 132.277344 281.097656 C 130.316406 282.003906 128.179688 282.402344 125.75 282.992188 C 121.6875 283.980469 117.105469 284.640625 112.679688 285.042969 C 108.253906 285.4375 103.601562 286.113281 100.453125 287.691406 C 98.636719 288.601562 97.476562 289.738281 95.785156 290.6875 C 91.898438 292.875 86.289062 294.398438 84.585938 297.035156 C 83.621094 298.527344 83.511719 299.824219 83.429688 301.339844 C 83.355469 302.8125 82.242188 304.3125 80.300781 305.550781 C 82.519531 304.078125 84.535156 303.039062 85.421875 301.332031 C 86.40625 299.4375 85.8125 297.5625 88.523438 296 C 90.859375 294.652344 94.996094 292.710938 97.585938 291.453125 C 99.222656 290.660156 100.335938 290.109375 101.839844 289.261719 C 105.226562 287.351562 109.371094 287.0625 114.386719 286.40625 C 119.402344 285.746094 125.5625 284.628906 130.386719 283.671875 C 135.210938 282.710938 140.105469 280.425781 141.585938 278.082031 C 142.265625 277.003906 141.957031 276.429688 142.71875 275.367188 C 144.078125 273.46875 147.703125 272.070312 151.480469 271.121094 C 155.257812 270.179688 157.03125 269.203125 163.53125 269.132812 C 164.925781 269.113281 172.128906 268.441406 175.128906 270.210938 C 176.75 271.164062 175.007812 272.324219 173.652344 273.40625 C 170.554688 275.875 164.820312 277.289062 159.738281 278.898438 C 154.648438 280.503906 149.554688 282.773438 149.238281 285.601562 C 149.058594 287.214844 149.308594 288.714844 150.910156 290.316406 C 152.347656 291.75 154.085938 292.953125 148.648438 293.902344 C 145.769531 294.40625 140.808594 294.1875 138.015625 294.804688 C 135.050781 295.460938 133.6875 296.871094 131.285156 297.929688 C 127.984375 299.382812 123.496094 299.402344 119.097656 299.6875 C 112.371094 300.132812 106.363281 302.621094 104.105469 305.597656 C 105.449219 304.398438 108.382812 303.667969 110.800781 302.828125 C 116.261719 300.925781 123.375 301.503906 127.664062 300.839844 C 126.070312 303.039062 128.355469 306.667969 129.464844 308.878906 C 130.6875 311.316406 128.535156 311.34375 128.085938 314.394531 C 127.769531 316.527344 129.652344 319.003906 133.902344 319.710938 C 131.308594 318.742188 130.699219 316.984375 131.050781 315.40625 C 131.398438 313.832031 132.507812 312.28125 132.605469 310.703125 C 132.808594 307.4375 128.125 303.636719 132.097656 300.878906 C 135.023438 298.851562 135.808594 297.265625 140.464844 296.445312 C 147.324219 295.234375 154.578125 296.007812 156.839844 293.273438 C 157.828125 292.078125 155.867188 290.429688 155.339844 289.191406 C 152.292969 282.023438 166.292969 280.332031 167.386719 280.828125 C 168.933594 281.519531 165.484375 283.777344 167.90625 285.847656 C 169.539062 287.246094 173.542969 287.859375 174.445312 289.40625 C 175.28125 290.847656 172.578125 292.210938 171.78125 293.675781 C 170.125 296.714844 176.828125 299.773438 174.542969 302.726562 C 172.359375 305.554688 164.257812 305.824219 158.765625 307.382812 C 150.59375 309.707031 149.042969 315.851562 155.863281 318.820312 C 151.269531 314.792969 153.070312 310.054688 160.765625 308.820312 C 164.152344 308.28125 168.1875 307.789062 171.261719 306.921875 C 174.269531 306.074219 176.347656 303.464844 179.8125 303.386719 C 182.398438 303.328125 184.296875 306.394531 185.542969 307.453125 C 186.792969 308.515625 187.417969 309.722656 188.71875 310.769531 C 190.851562 312.476562 194.875 313.945312 194.328125 315.929688 C 194.058594 316.914062 193.699219 317.625 193.660156 318.808594 C 196.433594 316.984375 196.679688 314.386719 194.253906 312.488281 C 192.773438 311.328125 190.394531 310.410156 189.570312 309.105469 C 189.023438 308.25 186.96875 304.738281 186.140625 303.941406 C 183.140625 301.03125 179.679688 301.644531 177.480469 298.585938 C 172.949219 292.296875 182.609375 292.558594 180.519531 289.699219 C 178.671875 287.167969 170.910156 285.851562 171.652344 283.183594 C 172.164062 281.34375 176.570312 280.316406 178.40625 278.667969 C 179.207031 277.949219 179.492188 277.125 180.320312 276.410156 C 181.734375 275.1875 184.792969 274.429688 187.714844 274.582031 C 190.632812 274.734375 191.359375 276.277344 192.117188 277.613281 C 193.789062 280.542969 189.019531 283.03125 190.769531 285.953125 C 191.3125 286.863281 192.65625 287.691406 192.527344 288.636719 C 192.402344 289.527344 191.007812 290.246094 190.101562 291.035156 C 188.019531 292.839844 188.632812 295.242188 191.558594 296.738281 C 194.535156 298.265625 199.160156 298.738281 203.0625 299.699219 C 206.960938 300.667969 210.539062 302.761719 208.785156 304.667969 C 211.179688 303.050781 210.820312 300.664062 207.964844 299.230469 C 205.585938 298.035156 202.027344 297.585938 198.96875 296.8125 C 195.90625 296.039062 193.007812 294.554688 193.824219 292.957031 C 194.535156 291.558594 197.832031 290.648438 198.175781 289.226562 C 198.320312 288.617188 198.347656 287.960938 197.832031 287.398438 C 193.460938 282.628906 199.035156 278.476562 211.421875 283.46875 C 215.546875 285.132812 212.125 288.140625 215.359375 289.320312 C 219.070312 290.671875 228.785156 288.945312 230.917969 290.921875 C 232.929688 292.769531 225.789062 296.214844 225.980469 298.289062 C 226.167969 300.367188 230.335938 301.9375 231.273438 303.972656 C 232.582031 306.792969 227.441406 309.335938 226.414062 312.1875 C 225.53125 314.648438 228.09375 317.300781 232.605469 318.597656 C 228.578125 317.175781 228.796875 314.277344 230.449219 312.039062 C 232.101562 309.796875 234.820312 307.621094 234.472656 305.257812 C 234.160156 303.109375 231.332031 301.199219 230.464844 299.074219 C 229.589844 296.953125 232.308594 294.746094 236.863281 294.457031 C 247.859375 293.765625 243.722656 299.71875 248.433594 302.046875 C 252.851562 304.222656 264.199219 305.632812 264.1875 309.679688 C 264.183594 311.515625 263.78125 313.886719 260.359375 314.820312 C 267.121094 313.234375 269.238281 308.632812 264.4375 305.859375 C 260.464844 303.5625 248.011719 300.898438 250.042969 298.6875 C 249.386719 299.402344 261.265625 300.019531 270.9375 298.910156 C 276.628906 298.253906 282.585938 299.949219 284.179688 302.558594 C 282.84375 300.367188 279.933594 298.652344 275.777344 298.070312 C 271.613281 297.484375 268.507812 297.953125 264.214844 298.027344 C 259.925781 298.097656 254.039062 298.398438 251.007812 296.941406 C 248.78125 295.871094 248.898438 293.707031 246.226562 292.875 C 243.777344 292.113281 240.410156 292.179688 238.164062 291.289062 C 236.40625 290.59375 235.742188 289.472656 234.246094 288.652344 C 229.777344 286.195312 218.84375 289.675781 218.558594 286.496094 C 218.191406 282.4375 212.863281 280.335938 207.535156 279.609375 C 204.03125 279.128906 200.484375 278.335938 198.601562 276.871094 C 196.71875 275.402344 197.089844 273.226562 200.109375 272.265625 C 203.140625 271.308594 207.421875 271.9375 210.167969 273.085938 C 212.914062 274.238281 214.671875 275.8125 217.011719 277.148438 C 222.59375 280.335938 232.988281 281.496094 241.617188 281.105469 C 244.148438 280.960938 259.558594 280.523438 263.21875 288.242188 C 264.136719 290.175781 266.035156 292.316406 269.957031 293.167969 C 274.652344 294.179688 280.796875 291.320312 285.398438 292.460938 C 289.199219 293.394531 289.867188 296.90625 292.125 298.566406 C 294.660156 300.425781 299.597656 300.980469 303.886719 301.976562 C 297.351562 300.464844 294.011719 298.015625 291.917969 295.789062 C 289.535156 293.261719 288.191406 289.894531 281.191406 290.617188 " fill-opacity="1" fill-rule="nonzero"/><g clip-path="url(#24b63bf1ea)"><path fill="#008037" d="M 125.128906 300.035156 C 130.070312 301.050781 135.222656 301.464844 135.832031 298.589844 C 137.535156 290.59375 143.554688 288.386719 142.921875 287.367188 C 142.671875 286.960938 140.535156 287.109375 136.984375 288.097656 C 135.238281 288.582031 130.027344 291.285156 128.296875 291.851562 C 127.410156 292.144531 126.671875 292.636719 126.039062 293.164062 C 123.496094 295.285156 119.113281 295.832031 115.757812 297.082031 C 113.9375 297.761719 112.421875 299.457031 111.648438 299.859375 C 112.542969 298.03125 113.914062 297.429688 114.652344 296.976562 C 115.957031 296.167969 117.09375 295.375 118.289062 295.0625 C 120.277344 294.542969 121.519531 294.394531 122.96875 293.226562 C 126.46875 290.417969 128.429688 289.109375 131.824219 288.335938 C 131.675781 287.707031 125.714844 286.675781 123.167969 286.753906 C 120.503906 286.832031 116.15625 287.792969 112.929688 287.34375 C 111.761719 287.183594 110.769531 286.792969 109.667969 286.539062 C 108.566406 286.289062 107.25 286.765625 106.039062 287.171875 C 107.089844 286.132812 109.242188 285.847656 110.890625 286.011719 C 112.542969 286.171875 114.058594 286.636719 115.804688 286.542969 C 118.363281 286.410156 120.871094 285.101562 123.441406 284.90625 C 126.8125 284.644531 129.410156 286.34375 132.785156 286.089844 C 134.667969 285.945312 136.425781 285.054688 138.316406 284.675781 C 143.035156 283.734375 150.851562 285.589844 157.648438 285.039062 C 161.164062 284.757812 165.167969 284.917969 168.160156 283.507812 C 170.578125 282.363281 175.558594 277.242188 175.824219 276.554688 C 176.570312 274.582031 173.183594 273.097656 170.582031 273.496094 C 167.984375 273.894531 166.019531 274.4375 163.414062 274.8125 C 160.261719 275.265625 156.886719 275.023438 153.726562 274.703125 C 151.128906 274.441406 145.714844 273.976562 143.101562 274.253906 C 138.550781 274.726562 136.769531 275.917969 132.21875 276.40625 C 134.785156 275.554688 137.394531 274.78125 139.921875 273.859375 C 142.964844 272.746094 147.253906 273.0625 149.011719 273.117188 C 166.6875 273.6875 165.882812 268.617188 176.429688 267.683594 C 181.3125 267.261719 189.859375 267.132812 194.757812 267.375 C 197.96875 267.527344 201.1875 268.6875 204.40625 268.710938 C 206.066406 268.71875 207.726562 268.71875 209.386719 268.714844 C 210.1875 268.710938 211.183594 266.832031 211.503906 267.316406 C 213.019531 267.042969 216.148438 268.347656 216.546875 268.253906 C 216.734375 268.210938 216.9375 268.234375 217.128906 268.253906 C 219.34375 268.5 221.84375 268.316406 223.949219 268.820312 C 225.65625 269.226562 228.738281 270.375 229.710938 271.601562 C 232.085938 273.203125 234.398438 275.015625 237.386719 275.773438 C 238.644531 276.089844 239.976562 276.210938 241.191406 276.617188 C 243.867188 277.503906 245.558594 279.601562 248.097656 280.703125 C 250.585938 281.78125 253.59375 281.785156 256.398438 281.546875 C 259.199219 281.308594 262.007812 280.859375 264.828125 281.125 C 267.644531 281.390625 270.578125 282.558594 271.632812 284.558594 C 269.097656 282.15625 264.339844 282.113281 260.425781 282.683594 C 256.503906 283.25 252.308594 284.183594 248.613281 282.914062 C 245.875 281.976562 243.882812 279.941406 241.027344 279.238281 C 240.019531 278.988281 238.75 278.980469 238.113281 279.613281 C 237.535156 280.179688 237.847656 280.988281 238.050781 281.703125 C 239.046875 285.199219 241.027344 285.613281 243.175781 287.164062 C 244.726562 288.28125 246.421875 288.738281 248.34375 289.433594 C 251.5625 290.59375 255.191406 291.308594 258.699219 291.675781 C 262.203125 292.042969 265.894531 292.746094 268.382812 294.671875 C 269.820312 295.78125 270.734375 297.203125 272.074219 298.375 C 275.144531 301.0625 279.589844 302.804688 280.925781 306.152344 C 281.6875 308.046875 281.765625 309.726562 281.820312 311.691406 C 281.875 313.601562 282.75 315.496094 284.28125 317.027344 C 282.527344 315.207031 280.9375 313.945312 280.238281 311.761719 C 279.46875 309.34375 279.953125 306.890625 277.808594 304.972656 C 275.960938 303.320312 272.691406 300.964844 270.640625 299.4375 C 269.347656 298.46875 268.464844 297.796875 267.273438 296.753906 C 264.597656 294.410156 261.316406 294.1875 257.339844 293.496094 C 253.367188 292.808594 248.488281 291.546875 244.667969 290.441406 C 240.847656 289.332031 236.976562 286.492188 235.8125 283.488281 C 235.277344 282.109375 235.523438 281.359375 234.925781 279.996094 C 233.855469 277.570312 230.984375 275.839844 227.992188 274.683594 C 225.003906 273.53125 223.597656 272.292969 218.449219 272.296875 C 217.347656 272.296875 211.636719 271.515625 209.253906 273.839844 C 207.96875 275.097656 209.34375 276.589844 210.414062 277.980469 C 212.863281 281.15625 217.402344 282.917969 221.425781 284.914062 C 225.457031 286.910156 229.484375 289.746094 229.722656 293.40625 C 229.859375 295.492188 229.660156 297.445312 228.386719 299.554688 C 227.242188 301.441406 225.859375 303.039062 230.164062 304.152344 C 232.441406 304.742188 236.371094 304.335938 238.582031 305.0625 C 240.929688 305.835938 242.007812 307.625 243.902344 308.929688 C 246.511719 310.722656 250.066406 310.609375 253.550781 310.847656 C 258.878906 311.207031 263.628906 314.226562 265.40625 318 C 264.347656 316.488281 262.027344 315.648438 260.113281 314.640625 C 255.792969 312.363281 250.15625 313.332031 246.761719 312.597656 C 248.011719 315.398438 246.1875 320.164062 245.300781 323.054688 C 244.320312 326.246094 246.03125 326.222656 246.375 330.15625 C 246.617188 332.910156 245.113281 336.167969 241.75 337.207031 C 243.808594 335.882812 244.292969 333.589844 244.023438 331.558594 C 243.753906 329.523438 242.882812 327.550781 242.8125 325.507812 C 242.660156 321.289062 246.386719 316.226562 243.246094 312.773438 C 240.941406 310.226562 240.324219 308.195312 236.632812 307.25 C 231.207031 305.855469 225.460938 307.011719 223.679688 303.515625 C 222.898438 301.980469 224.460938 299.800781 224.878906 298.1875 C 227.316406 288.839844 216.226562 286.894531 215.363281 287.542969 C 214.132812 288.464844 216.859375 291.34375 214.9375 294.070312 C 213.640625 295.910156 210.46875 296.765625 209.75 298.796875 C 209.082031 300.679688 211.21875 302.410156 211.847656 304.300781 C 213.152344 308.222656 207.839844 312.304688 209.636719 316.109375 C 211.359375 319.753906 217.769531 319.957031 222.113281 321.859375 C 228.574219 324.691406 229.78125 332.609375 224.375 336.628906 C 228.023438 331.289062 226.613281 325.199219 220.523438 323.765625 C 217.847656 323.136719 214.65625 322.574219 212.222656 321.507812 C 209.84375 320.464844 208.207031 317.109375 205.464844 317.054688 C 203.421875 317.019531 201.90625 321.042969 200.921875 322.441406 C 199.933594 323.839844 199.433594 325.429688 198.402344 326.808594 C 196.707031 329.066406 193.527344 331.042969 193.953125 333.625 C 194.164062 334.902344 194.449219 335.828125 194.476562 337.375 C 192.285156 335.035156 192.09375 331.648438 194.019531 329.132812 C 195.191406 327.597656 197.074219 326.363281 197.730469 324.65625 C 198.164062 323.53125 199.800781 318.925781 200.457031 317.871094 C 202.835938 314.046875 205.574219 314.785156 207.324219 310.773438 C 210.925781 302.53125 203.273438 303.003906 204.941406 299.25 C 206.40625 295.941406 212.558594 294.121094 211.976562 290.664062 C 211.574219 288.28125 208.089844 287.003906 206.636719 284.875 C 206.007812 283.945312 205.777344 282.875 205.125 281.957031 C 204.007812 280.375 201.582031 279.410156 199.269531 279.625 C 196.957031 279.84375 196.382812 281.859375 195.773438 283.601562 C 194.441406 287.4375 198.21875 290.652344 196.824219 294.480469 C 196.394531 295.664062 195.332031 296.761719 195.429688 297.988281 C 195.527344 299.148438 196.628906 300.082031 197.34375 301.097656 C 198.992188 303.429688 198.5 306.570312 196.183594 308.550781 C 193.824219 310.574219 190.160156 311.234375 187.070312 312.527344 C 183.980469 313.820312 181.144531 316.585938 182.53125 319.074219 C 180.636719 316.980469 180.925781 313.84375 183.1875 311.949219 C 185.074219 310.371094 187.890625 309.753906 190.316406 308.71875 C 192.738281 307.683594 195.039062 305.71875 194.394531 303.636719 C 193.835938 301.824219 191.226562 300.65625 190.957031 298.800781 C 190.839844 298.007812 190.820312 297.148438 191.230469 296.410156 C 194.703125 290.15625 190.292969 284.777344 180.472656 291.3125 C 177.199219 293.496094 179.90625 297.4375 177.34375 298.992188 C 174.398438 300.773438 166.707031 298.480469 165.011719 301.070312 C 163.417969 303.507812 169.074219 308.058594 168.921875 310.785156 C 168.769531 313.519531 165.46875 315.597656 164.726562 318.28125 C 163.691406 322.003906 167.757812 325.339844 168.566406 329.085938 C 169.265625 332.316406 167.238281 335.828125 163.664062 337.582031 C 166.851562 335.667969 166.683594 331.855469 165.375 328.914062 C 164.066406 325.964844 161.914062 323.101562 162.191406 319.984375 C 162.4375 317.148438 164.679688 314.621094 165.371094 311.824219 C 166.058594 309.023438 163.910156 306.117188 160.300781 305.714844 C 151.585938 304.746094 154.867188 312.644531 151.132812 315.71875 C 147.632812 318.59375 138.640625 320.410156 138.65625 325.816406 C 138.65625 328.269531 138.984375 331.441406 141.691406 332.6875 C 136.335938 330.574219 134.648438 324.386719 138.449219 320.710938 C 141.597656 317.671875 151.464844 314.199219 149.855469 311.25 C 150.375 312.207031 140.960938 312.964844 133.285156 311.351562 C 128.769531 310.398438 124.042969 312.574219 122.785156 316.078125 C 123.84375 313.136719 126.144531 310.878906 129.445312 310.15625 C 132.746094 309.4375 135.210938 310.105469 138.617188 310.25 C 142.019531 310.398438 146.6875 310.839844 149.085938 308.925781 C 150.851562 307.519531 150.761719 304.648438 152.875 303.570312 C 154.820312 302.578125 157.488281 302.6875 159.273438 301.523438 C 160.664062 300.617188 161.1875 299.132812 162.378906 298.0625 C 165.917969 294.859375 174.582031 299.464844 174.808594 295.28125 C 175.101562 289.945312 179.328125 287.210938 183.554688 286.257812 C 186.332031 285.625 189.144531 284.582031 190.636719 282.660156 C 192.132812 280.742188 191.84375 277.898438 189.453125 276.652344 C 187.050781 275.402344 183.65625 276.207031 181.476562 277.710938 C 179.296875 279.210938 177.902344 281.265625 176.046875 283.011719 C 171.617188 287.175781 163.378906 288.648438 156.53125 288.023438 C 154.527344 287.824219 142.292969 286.96875 139.398438 297.195312 C 138.667969 299.765625 137.160156 302.59375 134.054688 303.671875 C 130.328125 304.960938 125.445312 301 121.792969 302.425781 C 118.773438 303.601562 118.25 308.339844 116.460938 310.539062 C 114.457031 313.007812 110.535156 313.660156 107.128906 314.925781 C 112.316406 313.007812 114.964844 309.746094 116.621094 306.78125 C 118.507812 303.40625 119.5625 298.902344 125.128906 300.035156 " fill-opacity="1" fill-rule="nonzero"/></g><path fill="#008037" d="M 264.363281 149.269531 L 265.25 148.9375 L 265.660156 149.066406 C 269.761719 150.363281 273.359375 151.289062 276.65625 151.902344 C 279.886719 152.484375 283.1875 152.898438 286.519531 153.144531 C 285.550781 153 284.589844 152.84375 283.640625 152.675781 C 279.933594 152.011719 275.601562 150.855469 270.765625 149.242188 L 267.40625 148.117188 L 271.605469 146.5625 C 284.035156 142.007812 292.074219 136.269531 297.246094 131.066406 C 292.878906 133.988281 287.785156 136.492188 282.808594 138.71875 L 280.582031 139.71875 L 281.082031 137.332031 C 281.835938 133.730469 282.84375 130.714844 284.089844 128.359375 C 283.429688 129.308594 282.808594 130.335938 282.25 131.433594 C 281.15625 133.574219 280.25 136.304688 279.566406 139.554688 L 279.433594 140.191406 L 278.828125 140.445312 C 271.722656 143.421875 264.039062 146.308594 256.609375 149.101562 C 249.160156 151.898438 242.125 154.542969 236.117188 157.101562 L 232.667969 158.570312 L 234.554688 155.328125 C 235.898438 153.023438 237.015625 150.878906 237.96875 148.769531 C 239.320312 145.773438 240.722656 141.976562 242.199219 137.957031 L 242.582031 136.914062 L 243.375 136.847656 C 247.390625 136.523438 250.6875 136.023438 253.449219 135.328125 C 254.375 135.097656 255.273438 134.84375 256.144531 134.570312 C 253.046875 135.238281 249.242188 135.699219 244.796875 135.949219 L 242.894531 136.058594 L 243.5625 134.269531 C 246.289062 126.980469 250.425781 115.90625 257.191406 106.757812 C 252.769531 110.917969 248.464844 116.316406 245.535156 123.136719 C 245.203125 123.910156 244.878906 124.671875 244.566406 125.425781 L 243.148438 128.832031 L 242.214844 125.261719 C 241.132812 121.117188 240.515625 117.398438 240.378906 114.207031 C 240.292969 112.191406 240.292969 109.484375 240.585938 106.335938 C 239.707031 110.503906 239.242188 115.226562 239.613281 120.34375 C 239.855469 123.648438 240.582031 127.460938 241.785156 131.671875 L 241.902344 132.078125 L 241.628906 132.785156 C 237.847656 142.492188 235.15625 151.070312 226.941406 160.996094 L 225.585938 162.039062 C 220.894531 164.535156 216.226562 167.484375 211.71875 170.796875 L 210.179688 171.929688 L 209.769531 170.0625 C 208.382812 163.78125 207.777344 158.222656 207.96875 153.546875 C 208.082031 150.714844 208.449219 146.703125 209.449219 142.027344 C 207.582031 147.480469 206.183594 153.871094 206.113281 160.859375 C 206.070312 164.492188 206.503906 168.671875 207.394531 173.277344 L 207.535156 174.011719 L 206.960938 174.484375 C 201.671875 178.777344 197.804688 182.628906 195.484375 185.101562 L 193.910156 186.78125 L 193.367188 184.542969 C 192.542969 181.136719 191.789062 177.054688 191.183594 173.769531 C 190.652344 170.914062 190.199219 168.445312 189.898438 167.488281 C 188.480469 162.996094 191.105469 135.570312 196.777344 118.085938 L 196.867188 117.800781 L 197.679688 116.992188 C 200.632812 114.050781 202.96875 111.726562 205.902344 108.96875 L 207.441406 107.492188 C 213.671875 101.507812 222.625 92.917969 230.53125 82.007812 C 227.136719 86.324219 223.1875 90.636719 218.617188 94.710938 C 212.292969 100.378906 206.425781 105.765625 201.175781 110.71875 L 197.609375 113.703125 C 198.269531 111.796875 200.464844 105.617188 201.121094 103.78125 C 203.734375 96.382812 208.261719 83.574219 209.929688 68.113281 C 209.191406 72.96875 208.054688 77.976562 206.390625 82.992188 L 205.757812 84.894531 L 203.308594 82.472656 C 200.140625 79.355469 197.40625 76.660156 195.46875 73.34375 C 194.65625 71.949219 193.851562 70.527344 193.089844 69.039062 C 194.082031 71.34375 195.351562 73.769531 196.957031 76.289062 C 198.421875 78.59375 201.089844 81.898438 204.683594 85.84375 L 205.1875 86.398438 L 203.261719 91.671875 C 193.238281 119.085938 185.992188 138.894531 183.71875 154.074219 L 183.21875 157.40625 L 181.433594 154.550781 C 176.957031 147.394531 172.75 139.519531 168.933594 131.140625 L 168.644531 130.511719 L 169.027344 129.9375 C 171.585938 126.066406 173.566406 122.507812 174.902344 119.355469 C 177.878906 112.378906 178.9375 105.847656 179.066406 100.3125 C 178.246094 105.648438 176.789062 110.128906 175.625 113.109375 C 174.1875 116.796875 171.84375 121.074219 168.671875 125.8125 L 167.390625 127.71875 L 166.492188 125.601562 C 163.042969 117.488281 159.894531 108.84375 157.140625 99.902344 L 156.960938 99.320312 L 157.3125 98.820312 C 159.972656 95.03125 161.855469 91.773438 163.082031 88.855469 C 164.1875 86.234375 164.917969 83.710938 165.378906 81.335938 C 164.996094 82.617188 164.597656 83.734375 164.242188 84.65625 C 163.023438 87.816406 160.921875 91.542969 158 95.734375 L 156.511719 97.871094 L 155.785156 95.371094 C 152.390625 83.699219 150.121094 73.167969 148.65625 64.871094 C 148.957031 69.761719 149.625 75.652344 150.96875 82.648438 L 151.539062 85.625 L 149.039062 83.910156 C 143.554688 80.136719 139.414062 76.722656 136.394531 73.46875 C 136.226562 73.289062 136.058594 73.105469 135.890625 72.917969 C 137.285156 74.738281 138.84375 76.546875 140.582031 78.3125 C 143.367188 81.160156 146.972656 84.113281 151.597656 87.34375 L 151.996094 87.625 L 152.101562 88.09375 C 154.082031 96.96875 156.925781 106.652344 160.558594 116.867188 L 161.496094 119.515625 L 158.90625 118.433594 C 148.699219 114.183594 123.714844 103.039062 112.238281 91.421875 C 111.960938 91.136719 111.683594 90.84375 111.414062 90.546875 C 112.871094 92.40625 114.515625 94.246094 116.371094 96.03125 C 127.285156 106.523438 146.628906 116.234375 160.753906 123.320312 L 161.519531 123.703125 L 161.691406 124.152344 C 162.253906 125.632812 162.824219 127.132812 163.398438 128.664062 C 166.664062 137.316406 170.367188 147.125 175.398438 157.699219 L 176.492188 160.003906 L 174.003906 159.453125 C 166.835938 157.859375 162.339844 155.945312 157.132812 153.734375 L 156.207031 153.339844 C 149.460938 150.480469 143.113281 147.019531 137.425781 143.144531 C 143.710938 148.546875 152.332031 154.433594 163.546875 158.949219 C 165.316406 159.671875 166.691406 160.34375 168.019531 160.996094 C 170.484375 162.207031 172.613281 163.253906 176.488281 164.164062 L 177.054688 164.296875 L 177.316406 164.820312 C 177.773438 165.746094 181.179688 184.664062 181.214844 184.851562 L 181.605469 186.976562 C 181.722656 187.316406 179.152344 185.984375 179.179688 186.003906 C 178.855469 185.769531 176.714844 184.640625 174.238281 183.335938 C 158.621094 175.105469 117.136719 153.253906 101.230469 134.347656 C 99.375 132.03125 97.648438 129.367188 96.089844 126.433594 C 98.289062 131.191406 101.25 136.085938 105.222656 140.785156 C 114.558594 151.898438 128.882812 160.3125 142.734375 168.445312 L 147.683594 171.957031 L 142.84375 171.304688 C 119.480469 167.277344 98.988281 161.289062 81.644531 153.4375 C 88.394531 156.964844 97.710938 160.929688 110.695312 164.925781 L 113.84375 165.894531 L 110.730469 167.292969 C 108.519531 168.046875 106.449219 168.617188 104.578125 168.996094 C 103.019531 169.308594 101.441406 169.570312 99.835938 169.773438 C 103.777344 169.648438 107.65625 169.179688 111.394531 168.378906 C 111.953125 168.261719 115.636719 166.726562 116 166.554688 C 127.144531 169.890625 140.628906 173.371094 157.226562 177.1875 L 157.429688 177.234375 L 157.609375 177.347656 C 160.019531 178.867188 162.136719 180.273438 164.089844 181.648438 L 166.847656 183.589844 L 163.488281 183.90625 C 160.207031 184.214844 156.9375 185.078125 153.785156 186.472656 C 152.175781 187.183594 150.664062 188.152344 149.0625 189.171875 C 147.839844 189.957031 146.574219 190.765625 145.214844 191.488281 C 138.894531 194.851562 131.933594 196.109375 126.847656 197.023438 C 123.980469 197.535156 121.007812 197.925781 118.015625 198.1875 C 118.050781 198.1875 118.078125 198.1875 118.109375 198.1875 C 123.582031 198.1875 129.039062 197.679688 134.300781 196.683594 L 134.394531 196.660156 L 138.644531 196.007812 L 135.378906 198.882812 C 131.460938 201.824219 127.144531 204.871094 122.300781 207.058594 C 124.878906 206.191406 127.902344 204.9375 131.414062 203.152344 C 133.503906 202.085938 135.6875 200.90625 137.800781 199.769531 C 146.859375 194.890625 156.222656 189.839844 164.480469 189.839844 C 170.25 189.839844 174.949219 192.382812 178.453125 197.394531 C 181.875 202.277344 182.695312 208.632812 183.011719 212.988281 C 184.457031 232.824219 180.96875 256.011719 170.191406 265.785156 C 172.546875 265.996094 175.566406 267.578125 177.863281 267.578125 C 178.496094 267.578125 181.132812 268.835938 181.605469 268.804688 C 191.753906 268.105469 199.9375 266.777344 209.910156 266.3125 C 208.007812 260.46875 202.023438 239.382812 203.851562 225.84375 C 206.9375 203.039062 224.199219 200.402344 236.917969 200.402344 C 238.300781 200.402344 239.753906 200.433594 241.476562 200.496094 L 241.984375 200.511719 L 242.332031 200.882812 C 244.164062 202.804688 245.96875 204.464844 247.699219 205.816406 C 250.679688 208.132812 253.8125 210.027344 256.839844 211.574219 C 254.945312 210.253906 253.304688 209.023438 252.003906 208.042969 C 250.441406 206.871094 248.742188 205.242188 246.667969 202.917969 L 244.613281 200.621094 L 247.683594 200.847656 C 248.816406 200.933594 249.960938 201.023438 251.128906 201.117188 C 254.796875 201.410156 258.582031 201.710938 262.644531 201.851562 C 264.609375 201.933594 266.507812 201.976562 268.289062 201.976562 C 270.835938 201.976562 273.085938 201.894531 275.070312 201.75 C 267.402344 201.746094 259.199219 200.367188 251.269531 199.027344 C 245.792969 198.105469 240.125 197.152344 234.800781 196.6875 L 230.289062 196.296875 L 234.367188 194.328125 C 236.0625 193.507812 237.648438 192.632812 239.132812 191.730469 C 235.195312 193.488281 231.6875 194.566406 229.183594 195.199219 C 226.566406 195.851562 221.214844 196.890625 219.203125 197.28125 C 218.890625 197.34375 218.507812 197.417969 218.507812 197.417969 C 210.140625 199.199219 204.902344 202.867188 201.980469 205.628906 L 200.367188 207.152344 L 199.808594 204.507812 C 199.0625 200.988281 198.414062 197.945312 199.21875 195.648438 C 202.351562 186.644531 216.285156 173.878906 225.175781 167.691406 L 225.628906 167.378906 L 229.214844 168.191406 C 244.988281 171.765625 264.621094 176.214844 279.59375 176.214844 C 280.476562 176.207031 281.347656 176.191406 282.207031 176.160156 C 269.308594 175.546875 250.628906 171.953125 231.148438 166.277344 L 228.402344 165.476562 L 230.863281 164.015625 C 240.953125 158 251.800781 153.953125 264.363281 149.269531 " fill-opacity="1" fill-rule="nonzero"/><path fill="#008037" d="M 142.605469 26.640625 C 142.597656 26.671875 133.941406 38.347656 146.847656 47.128906 C 146.84375 47.164062 155.628906 35.929688 142.605469 26.640625 " fill-opacity="1" fill-rule="nonzero"/><path fill="#008037" d="M 52.617188 120.28125 C 52.625 120.328125 51.597656 129.703125 63.765625 128.980469 C 63.777344 129.03125 64.996094 119.425781 52.617188 120.28125 " fill-opacity="1" fill-rule="nonzero"/><path fill="#008037" d="M 65.53125 110.648438 C 65.535156 110.675781 65.003906 118.167969 74.761719 117.480469 C 74.773438 117.511719 75.484375 109.910156 65.53125 110.648438 " fill-opacity="1" fill-rule="nonzero"/><path fill="#008037" d="M 154.273438 30.152344 C 154.273438 30.152344 148.179688 35.699219 153.957031 41.972656 C 153.953125 41.972656 160.042969 36.742188 154.273438 30.152344 " fill-opacity="1" fill-rule="nonzero"/><path fill="#008037" d="M 158.429688 26.597656 C 158.429688 26.601562 156.804688 30.953125 161.703125 34.007812 C 162.015625 32.605469 163.347656 29.75 158.429688 26.597656 " fill-opacity="1" fill-rule="nonzero"/><path fill="#008037" d="M 193.117188 24.566406 C 193.109375 24.527344 180.789062 32.214844 189.28125 45.527344 C 189.28125 45.484375 201.515625 38.496094 193.117188 24.566406 " fill-opacity="1" fill-rule="nonzero"/><path fill="#008037" d="M 206.097656 22.3125 C 206.089844 22.320312 197.519531 32.800781 210.589844 43.460938 C 210.582031 43.46875 219.289062 33.574219 206.097656 22.3125 " fill-opacity="1" fill-rule="nonzero"/><path fill="#008037" d="M 133.777344 41.902344 C 133.777344 41.960938 127.476562 54.542969 142.171875 60.859375 C 142.171875 60.921875 148.6875 48.542969 133.777344 41.902344 " fill-opacity="1" fill-rule="nonzero"/><path fill="#008037" d="M 161.113281 39.648438 C 161.105469 39.585938 147.042969 45.550781 151.621094 59.824219 C 151.613281 59.769531 165.449219 54.460938 161.113281 39.648438 " fill-opacity="1" fill-rule="nonzero"/><path fill="#008037" d="M 172.539062 42.238281 C 172.53125 42.203125 162.101562 46.28125 165.480469 56.976562 C 165.476562 56.945312 175.742188 53.304688 172.539062 42.238281 " fill-opacity="1" fill-rule="nonzero"/><path fill="#008037" d="M 199.625 45.152344 C 199.621094 45.113281 189.175781 48.507812 192.523438 59.421875 C 192.519531 59.386719 202.792969 56.40625 199.625 45.152344 " fill-opacity="1" fill-rule="nonzero"/><path fill="#008037" d="M 171.558594 23.578125 C 171.554688 23.535156 161.105469 27.664062 164.492188 38.34375 C 164.488281 38.308594 174.769531 34.632812 171.558594 23.578125 " fill-opacity="1" fill-rule="nonzero"/><path fill="#008037" d="M 180.113281 61.527344 C 180.113281 61.480469 168.964844 62.894531 169.03125 74.160156 C 169.03125 74.121094 179.902344 73.003906 180.113281 61.527344 " fill-opacity="1" fill-rule="nonzero"/><path fill="#008037" d="M 202.230469 51.078125 C 202.226562 51.085938 197.222656 58.039062 206.386719 63.480469 C 206.382812 63.492188 211.496094 56.835938 202.230469 51.078125 " fill-opacity="1" fill-rule="nonzero"/><path fill="#008037" d="M 85.109375 65.699219 C 85.113281 65.734375 83.03125 74.046875 93.324219 73.992188 C 93.328125 74.027344 95.578125 65.664062 85.109375 65.699219 " fill-opacity="1" fill-rule="nonzero"/><path fill="#008037" d="M 176.765625 76.097656 C 176.765625 76.066406 167.191406 76.859375 167.765625 86.339844 C 167.765625 86.3125 177.121094 85.773438 176.765625 76.097656 " fill-opacity="1" fill-rule="nonzero"/><path fill="#008037" d="M 221.671875 39.371094 C 221.671875 39.335938 212.070312 39.070312 212.597656 48.582031 C 212.597656 48.554688 221.980469 49.011719 221.671875 39.371094 " fill-opacity="1" fill-rule="nonzero"/><path fill="#008037" d="M 188.019531 76.847656 C 188.019531 76.828125 180.28125 77.796875 181.421875 85.472656 C 181.421875 85.453125 189 84.703125 188.019531 76.847656 " fill-opacity="1" fill-rule="nonzero"/><path fill="#008037" d="M 188.085938 60.839844 C 188.085938 60.859375 187.6875 53.925781 178.875 54.300781 C 178.875 54.324219 179.070312 60.945312 188.085938 60.839844 " fill-opacity="1" fill-rule="nonzero"/><path fill="#008037" d="M 189.824219 69.113281 C 189.824219 69.128906 189.476562 63.085938 181.796875 63.363281 C 181.796875 63.378906 181.964844 69.175781 189.824219 69.113281 " fill-opacity="1" fill-rule="nonzero"/><path fill="#008037" d="M 192.722656 73.875 C 192.722656 73.882812 190.738281 69.355469 185 71.238281 C 185 71.246094 186.804688 75.617188 192.722656 73.875 " fill-opacity="1" fill-rule="nonzero"/><path fill="#008037" d="M 199.4375 84.453125 C 199.4375 84.464844 196.796875 78.371094 189.128906 80.816406 C 189.128906 80.832031 191.535156 86.675781 199.4375 84.453125 " fill-opacity="1" fill-rule="nonzero"/><path fill="#008037" d="M 182.632812 68.988281 C 182.628906 68.972656 175.4375 71.746094 178.800781 78.851562 C 178.796875 78.839844 185.894531 76.347656 182.632812 68.988281 " fill-opacity="1" fill-rule="nonzero"/><path fill="#008037" d="M 202.648438 40.554688 C 202.644531 40.570312 199.511719 46.671875 207.546875 50.253906 C 207.542969 50.265625 210.804688 44.359375 202.648438 40.554688 " fill-opacity="1" fill-rule="nonzero"/><g clip-path="url(#c9a1d43117)"><path fill="#008037" d="M 177.59375 19.761719 C 177.59375 19.777344 174.46875 26.074219 182.53125 29.183594 C 182.527344 29.199219 185.78125 23.070312 177.59375 19.761719 " fill-opacity="1" fill-rule="nonzero"/></g><path fill="#008037" d="M 131.214844 31.105469 C 131.214844 31.125 128.136719 37.726562 136.15625 39.867188 C 136.15625 39.886719 139.347656 33.410156 131.214844 31.105469 " fill-opacity="1" fill-rule="nonzero"/><path fill="#008037" d="M 173.589844 101.238281 C 173.589844 101.242188 179.449219 94.433594 171 88.734375 C 171 88.738281 165.089844 95.269531 173.589844 101.238281 " fill-opacity="1" fill-rule="nonzero"/><path fill="#008037" d="M 186.757812 52.101562 C 186.757812 52.132812 188.550781 43.761719 177.921875 41.972656 C 177.917969 42 175.933594 49.984375 186.757812 52.101562 " fill-opacity="1" fill-rule="nonzero"/><path fill="#008037" d="M 182.359375 94.730469 C 182.359375 94.710938 190.671875 94.324219 190.25 86.101562 C 190.25 86.078125 182.109375 86.265625 182.359375 94.730469 " fill-opacity="1" fill-rule="nonzero"/><path fill="#008037" d="M 149.746094 133.148438 C 149.746094 133.128906 158.003906 132.246094 157.554688 124.050781 C 157.554688 124.035156 149.46875 124.730469 149.746094 133.148438 " fill-opacity="1" fill-rule="nonzero"/><path fill="#008037" d="M 167.796875 63.449219 C 167.792969 63.425781 176.128906 62.78125 175.695312 54.566406 C 175.691406 54.542969 167.53125 55 167.796875 63.449219 " fill-opacity="1" fill-rule="nonzero"/><path fill="#008037" d="M 172.757812 39.449219 C 172.757812 39.421875 181.117188 38.867188 180.683594 30.648438 C 180.683594 30.625 172.5 30.988281 172.757812 39.449219 " fill-opacity="1" fill-rule="nonzero"/><path fill="#008037" d="M 166.28125 101.679688 C 166.28125 101.703125 162.355469 109.976562 172.761719 113.703125 C 172.761719 113.722656 176.847656 105.652344 166.28125 101.679688 " fill-opacity="1" fill-rule="nonzero"/><path fill="#008037" d="M 155.527344 68.960938 C 155.523438 68.984375 151.601562 77.34375 162.039062 80.796875 C 162.039062 80.820312 166.125 72.640625 155.527344 68.960938 " fill-opacity="1" fill-rule="nonzero"/><path fill="#008037" d="M 157.503906 60.300781 C 157.503906 60.320312 155.226562 67.527344 164.347656 69.441406 C 164.347656 69.460938 166.789062 62.363281 157.503906 60.300781 " fill-opacity="1" fill-rule="nonzero"/><path fill="#008037" d="M 198.351562 61.832031 C 198.347656 61.847656 194.382812 69.847656 204.816406 74.285156 C 204.816406 74.300781 208.949219 66.546875 198.351562 61.832031 " fill-opacity="1" fill-rule="nonzero"/><path fill="#008037" d="M 200.085938 133.410156 C 200.082031 133.414062 195.121094 140.46875 204.207031 145.734375 C 204.203125 145.742188 209.269531 138.984375 200.085938 133.410156 " fill-opacity="1" fill-rule="nonzero"/><path fill="#008037" d="M 203.542969 125.992188 C 203.542969 126 200.433594 132.15625 208.390625 135.605469 C 208.390625 135.613281 211.621094 129.667969 203.542969 125.992188 " fill-opacity="1" fill-rule="nonzero"/><path fill="#008037" d="M 196.242188 144.230469 C 196.242188 144.246094 192.308594 152.328125 202.652344 156.574219 C 202.652344 156.585938 206.75 148.761719 196.242188 144.230469 " fill-opacity="1" fill-rule="nonzero"/><path fill="#008037" d="M 196.105469 156.71875 C 196.105469 156.734375 192.179688 164.824219 202.511719 169.046875 C 202.507812 169.058594 206.601562 161.230469 196.105469 156.71875 " fill-opacity="1" fill-rule="nonzero"/><path fill="#008037" d="M 189.144531 110.898438 C 189.144531 110.867188 179.09375 110.023438 177.882812 120.039062 C 177.882812 120.011719 187.65625 121.027344 189.144531 110.898438 " fill-opacity="1" fill-rule="nonzero"/><path fill="#008037" d="M 181.925781 104.765625 C 181.929688 104.746094 191.265625 107.179688 194.488281 98.046875 C 194.488281 98.027344 185.429688 95.320312 181.925781 104.765625 " fill-opacity="1" fill-rule="nonzero"/><path fill="#008037" d="M 209.140625 85.273438 C 209.144531 85.253906 218.457031 88.289062 221.792969 79.445312 C 221.796875 79.425781 212.769531 76.101562 209.140625 85.273438 " fill-opacity="1" fill-rule="nonzero"/><path fill="#008037" d="M 212.511719 75.726562 C 212.511719 75.699219 222.207031 77.253906 223.472656 67.875 C 223.476562 67.847656 214.023438 66.023438 212.511719 75.726562 " fill-opacity="1" fill-rule="nonzero"/><path fill="#008037" d="M 212.898438 65.136719 C 212.898438 65.109375 222.546875 67.070312 224.304688 57.8125 C 224.308594 57.785156 214.910156 55.542969 212.898438 65.136719 " fill-opacity="1" fill-rule="nonzero"/><path fill="#008037" d="M 213.6875 55.878906 C 213.691406 55.847656 223.347656 57.855469 225.105469 48.605469 C 225.109375 48.578125 215.707031 46.289062 213.6875 55.878906 " fill-opacity="1" fill-rule="nonzero"/><path fill="#008037" d="M 249.890625 34.667969 C 249.886719 34.632812 240.839844 39.144531 247.328125 49.792969 C 247.328125 49.757812 256.304688 45.726562 249.890625 34.667969 " fill-opacity="1" fill-rule="nonzero"/><path fill="#008037" d="M 240.289062 95.0625 C 240.292969 95.074219 232.554688 88.460938 224.160156 94.738281 C 224.160156 94.753906 231.539062 101.003906 240.289062 95.0625 " fill-opacity="1" fill-rule="nonzero"/><path fill="#008037" d="M 234.011719 101.765625 C 234.015625 101.765625 225.304688 96.394531 218.324219 104.03125 C 218.328125 104.035156 226.679688 109.144531 234.011719 101.765625 " fill-opacity="1" fill-rule="nonzero"/><path fill="#008037" d="M 223.0625 109.308594 C 223.066406 109.304688 214.003906 104.679688 207.691406 112.945312 C 207.695312 112.941406 216.394531 117.382812 223.0625 109.308594 " fill-opacity="1" fill-rule="nonzero"/><path fill="#008037" d="M 236.515625 53.53125 C 236.515625 53.511719 229.167969 58.019531 235.976562 66.074219 C 235.972656 66.054688 243.304688 61.933594 236.515625 53.53125 " fill-opacity="1" fill-rule="nonzero"/><path fill="#008037" d="M 257.867188 52.835938 C 257.871094 52.816406 249.355469 49.34375 246.621094 57.289062 C 246.625 57.273438 254.878906 60.683594 257.867188 52.835938 " fill-opacity="1" fill-rule="nonzero"/><path fill="#008037" d="M 240.765625 44.332031 C 240.765625 44.324219 235.515625 48.636719 241.921875 54.6875 C 241.917969 54.683594 247.195312 50.671875 240.765625 44.332031 " fill-opacity="1" fill-rule="nonzero"/><path fill="#008037" d="M 259.878906 92.414062 C 259.878906 92.394531 253.453125 95.175781 258.195312 102.199219 C 258.195312 102.183594 264.574219 99.695312 259.878906 92.414062 " fill-opacity="1" fill-rule="nonzero"/><path fill="#008037" d="M 266.109375 86.992188 C 266.109375 86.976562 259.699219 89.625 264.429688 96.707031 C 264.429688 96.6875 270.800781 94.332031 266.109375 86.992188 " fill-opacity="1" fill-rule="nonzero"/><g clip-path="url(#8008f58b9b)"><path fill="#008037" d="M 198.273438 19.570312 C 198.273438 19.570312 193.136719 24.339844 199.453125 29.675781 C 199.449219 29.671875 204.617188 25.175781 198.273438 19.570312 " fill-opacity="1" fill-rule="nonzero"/></g><path fill="#008037" d="M 284.011719 62.367188 C 284.011719 62.335938 275.449219 62.644531 278.289062 71.628906 C 278.292969 71.597656 286.710938 71.519531 284.011719 62.367188 " fill-opacity="1" fill-rule="nonzero"/><path fill="#008037" d="M 289.148438 108.699219 C 289.148438 108.6875 284.128906 112.363281 290.21875 118.527344 C 290.21875 118.511719 295.261719 115.136719 289.148438 108.699219 " fill-opacity="1" fill-rule="nonzero"/><path fill="#008037" d="M 314.742188 121.007812 C 314.746094 120.996094 307.429688 118.503906 306.53125 125.320312 C 306.53125 125.3125 313.664062 127.792969 314.742188 121.007812 " fill-opacity="1" fill-rule="nonzero"/><path fill="#008037" d="M 307.132812 90.183594 C 307.140625 90.160156 298.410156 87.527344 297.917969 95.859375 C 297.921875 95.835938 306.441406 98.472656 307.132812 90.183594 " fill-opacity="1" fill-rule="nonzero"/><path fill="#008037" d="M 298.574219 77.183594 C 298.578125 77.15625 290.175781 76.105469 291.515625 84.59375 C 291.519531 84.566406 299.75 85.746094 298.574219 77.183594 " fill-opacity="1" fill-rule="nonzero"/><path fill="#008037" d="M 311.53125 129.070312 C 311.53125 129.070312 304.753906 124.96875 301.429688 130.746094 C 301.433594 130.75 307.996094 134.714844 311.53125 129.070312 " fill-opacity="1" fill-rule="nonzero"/><path fill="#008037" d="M 299.253906 118.921875 C 299.257812 118.898438 292.386719 119.769531 295.398438 127.074219 C 295.402344 127.050781 302.175781 126.398438 299.253906 118.921875 " fill-opacity="1" fill-rule="nonzero"/><path fill="#008037" d="M 272.886719 53.542969 C 272.886719 53.527344 267.34375 56.746094 272.960938 63.347656 C 272.960938 63.335938 278.5 60.417969 272.886719 53.542969 " fill-opacity="1" fill-rule="nonzero"/><path fill="#008037" d="M 259.292969 43.25 C 259.292969 43.226562 251.828125 42.902344 253.023438 50.425781 C 253.023438 50.40625 260.339844 50.882812 259.292969 43.25 " fill-opacity="1" fill-rule="nonzero"/><path fill="#008037" d="M 291.5 124.816406 C 291.503906 124.796875 284.609375 125.835938 287.632812 133.121094 C 287.636719 133.101562 294.429688 132.269531 291.5 124.816406 " fill-opacity="1" fill-rule="nonzero"/><path fill="#008037" d="M 302.246094 142.878906 C 302.246094 142.902344 297.871094 136.851562 291.097656 139.730469 C 291.097656 139.75 295.246094 145.558594 302.246094 142.878906 " fill-opacity="1" fill-rule="nonzero"/><path fill="#008037" d="M 296.308594 148.589844 C 296.308594 148.609375 293.546875 142.140625 285.761719 143.371094 C 285.761719 143.394531 288.304688 149.609375 296.308594 148.589844 " fill-opacity="1" fill-rule="nonzero"/><path fill="#008037" d="M 283.800781 159.160156 C 283.800781 159.175781 281.023438 152.738281 273.210938 154.253906 C 273.210938 154.269531 275.765625 160.476562 283.800781 159.160156 " fill-opacity="1" fill-rule="nonzero"/><path fill="#008037" d="M 295.949219 161.125 C 295.945312 161.140625 293.1875 154.714844 285.402344 156.035156 C 285.402344 156.054688 287.945312 162.246094 295.949219 161.125 " fill-opacity="1" fill-rule="nonzero"/><path fill="#008037" d="M 307.136719 145.742188 C 307.136719 145.730469 299.765625 144.359375 299.90625 151.507812 C 299.910156 151.492188 307.113281 152.925781 307.136719 145.742188 " fill-opacity="1" fill-rule="nonzero"/><path fill="#008037" d="M 308.984375 157.796875 C 308.984375 157.808594 303.464844 152.476562 297.886719 156.707031 C 297.886719 156.722656 303.175781 161.847656 308.984375 157.796875 " fill-opacity="1" fill-rule="nonzero"/><path fill="#008037" d="M 307.511719 135.777344 C 307.515625 135.78125 301.324219 130.9375 296.730469 135.9375 C 296.730469 135.945312 302.695312 140.609375 307.511719 135.777344 " fill-opacity="1" fill-rule="nonzero"/><path fill="#008037" d="M 263.003906 141.21875 C 263.003906 141.234375 258.992188 135.160156 251.816406 138.21875 C 251.816406 138.234375 255.589844 144.085938 263.003906 141.21875 " fill-opacity="1" fill-rule="nonzero"/><path fill="#008037" d="M 270.917969 138.957031 C 270.917969 138.972656 266.929688 132.851562 259.75 135.753906 C 259.75 135.773438 263.5 141.660156 270.917969 138.957031 " fill-opacity="1" fill-rule="nonzero"/><path fill="#008037" d="M 277.34375 134.988281 C 277.34375 135.003906 273.738281 129.417969 267.238281 131.925781 C 267.238281 131.941406 270.632812 137.320312 277.34375 134.988281 " fill-opacity="1" fill-rule="nonzero"/><path fill="#008037" d="M 279.867188 128.898438 C 279.867188 128.902344 275.730469 125.671875 272.417969 129.15625 C 272.421875 129.160156 276.394531 132.3125 279.867188 128.898438 " fill-opacity="1" fill-rule="nonzero"/><path fill="#008037" d="M 262.488281 119.777344 C 262.488281 119.75 254.074219 122.382812 258.828125 131.308594 C 258.828125 131.277344 267.144531 128.984375 262.488281 119.777344 " fill-opacity="1" fill-rule="nonzero"/><path fill="#008037" d="M 269.503906 117.53125 C 269.503906 117.511719 262.722656 119.625 266.710938 126.886719 C 266.710938 126.867188 273.417969 125.015625 269.503906 117.53125 " fill-opacity="1" fill-rule="nonzero"/><path fill="#008037" d="M 253.632812 122.726562 C 253.632812 122.707031 246.832031 125.085938 250.839844 132.28125 C 250.839844 132.261719 257.574219 130.148438 253.632812 122.726562 " fill-opacity="1" fill-rule="nonzero"/><path fill="#008037" d="M 224.597656 72.664062 C 224.59375 72.660156 219.355469 77.265625 225.769531 83.03125 C 225.765625 83.027344 231.039062 78.710938 224.597656 72.664062 " fill-opacity="1" fill-rule="nonzero"/><path fill="#008037" d="M 210.621094 87.765625 C 210.621094 87.761719 205.386719 92.570312 211.808594 98.136719 C 211.808594 98.132812 217.074219 93.609375 210.621094 87.765625 " fill-opacity="1" fill-rule="nonzero"/><path fill="#008037" d="M 228.878906 61.820312 C 228.878906 61.808594 222.144531 67.75 230.53125 75.261719 C 230.527344 75.253906 237.304688 69.714844 228.878906 61.820312 " fill-opacity="1" fill-rule="nonzero"/><path fill="#008037" d="M 231.449219 86.828125 C 231.449219 86.828125 239.335938 92.523438 245.804688 85.726562 C 245.808594 85.730469 238.269531 79.722656 231.449219 86.828125 " fill-opacity="1" fill-rule="nonzero"/><path fill="#008037" d="M 212.167969 131.855469 C 212.171875 131.808594 225.046875 129.695312 221.570312 116.722656 C 221.574219 116.675781 208.890625 118.484375 212.167969 131.855469 " fill-opacity="1" fill-rule="nonzero"/><path fill="#008037" d="M 268.558594 96.746094 C 268.566406 96.707031 281.511719 101.03125 284.230469 89.234375 C 284.242188 89.199219 271.664062 84.359375 268.558594 96.746094 " fill-opacity="1" fill-rule="nonzero"/><path fill="#008037" d="M 278.722656 85.082031 C 278.734375 85.015625 291.710938 86.402344 289.902344 73.519531 C 289.910156 73.453125 277.171875 71.707031 278.722656 85.082031 " fill-opacity="1" fill-rule="nonzero"/><path fill="#008037" d="M 273.734375 125.578125 C 273.742188 125.519531 286.277344 124.472656 282.140625 111.554688 C 282.152344 111.496094 269.785156 112.238281 273.734375 125.578125 " fill-opacity="1" fill-rule="nonzero"/><path fill="#008037" d="M 294.289062 117.742188 C 294.296875 117.707031 303.503906 117.421875 300.472656 107.863281 C 300.480469 107.828125 291.398438 107.886719 294.289062 117.742188 " fill-opacity="1" fill-rule="nonzero"/><path fill="#008037" d="M 277.667969 110.09375 C 277.667969 110.058594 286.945312 109.449219 283.890625 99.84375 C 283.894531 99.808594 274.746094 100.195312 277.667969 110.09375 " fill-opacity="1" fill-rule="nonzero"/><path fill="#008037" d="M 306.601562 118.242188 C 306.609375 118.175781 317.566406 116.25 311.296875 104.058594 C 311.304688 103.996094 300.421875 105.722656 306.601562 118.242188 " fill-opacity="1" fill-rule="nonzero"/><path fill="#008037" d="M 262.375 66.378906 C 262.375 66.335938 272.253906 61.445312 263.5 50.039062 C 263.5 49.996094 253.628906 54.703125 262.375 66.378906 " fill-opacity="1" fill-rule="nonzero"/><path fill="#008037" d="M 216.089844 37.074219 C 216.089844 37.039062 225.359375 35.644531 222.582031 26.285156 C 222.585938 26.25 213.457031 27.449219 216.089844 37.074219 " fill-opacity="1" fill-rule="nonzero"/><path fill="#008037" d="M 240.769531 41.863281 C 240.765625 41.871094 245.253906 35.128906 235.769531 29.351562 C 235.769531 29.363281 231.179688 35.835938 240.769531 41.863281 " fill-opacity="1" fill-rule="nonzero"/><path fill="#008037" d="M 247 86.664062 C 247.007812 86.621094 260.054688 90.433594 262.785156 78.308594 C 262.792969 78.265625 250.105469 73.964844 247 86.664062 " fill-opacity="1" fill-rule="nonzero"/><path fill="#008037" d="M 236.210938 78.40625 C 236.210938 78.40625 243.511719 83.777344 249.507812 77.570312 C 249.511719 77.574219 242.53125 71.929688 236.210938 78.40625 " fill-opacity="1" fill-rule="nonzero"/><path fill="#008037" d="M 241.292969 70.980469 C 241.296875 70.972656 249.289062 75.566406 254.015625 68.589844 C 254.015625 68.589844 246.328125 63.703125 241.292969 70.980469 " fill-opacity="1" fill-rule="nonzero"/><path fill="#008037" d="M 263.855469 67.371094 C 263.859375 67.339844 255.0625 67.28125 256.839844 76.207031 C 256.839844 76.179688 265.460938 76.433594 263.855469 67.371094 " fill-opacity="1" fill-rule="nonzero"/><path fill="#008037" d="M 286.054688 98.296875 C 286.0625 98.234375 298.859375 99.863281 296.945312 87.234375 C 296.957031 87.167969 284.394531 85.1875 286.054688 98.296875 " fill-opacity="1" fill-rule="nonzero"/><path fill="#008037" d="M 289.460938 106.074219 C 289.46875 106.046875 301.742188 110.652344 303.984375 99.597656 C 303.996094 99.566406 292.082031 94.46875 289.460938 106.074219 " fill-opacity="1" fill-rule="nonzero"/><path fill="#008037" d="M 245.128906 63.609375 C 245.132812 63.605469 253.125 68.292969 257.847656 61.398438 C 257.847656 61.398438 250.167969 56.417969 245.128906 63.609375 " fill-opacity="1" fill-rule="nonzero"/><path fill="#008037" d="M 222.539062 132.238281 C 222.539062 132.226562 214.953125 130.644531 213.402344 138.101562 C 213.402344 138.09375 220.769531 139.75 222.539062 132.238281 " fill-opacity="1" fill-rule="nonzero"/><path fill="#008037" d="M 210.683594 153.300781 C 210.6875 153.285156 219.597656 155.429688 221.980469 146.777344 C 221.984375 146.761719 213.320312 144.363281 210.683594 153.300781 " fill-opacity="1" fill-rule="nonzero"/><path fill="#008037" d="M 211.046875 160.320312 C 211.050781 160.3125 219.800781 163.722656 223.828125 155.328125 C 223.828125 155.324219 215.363281 151.652344 211.046875 160.320312 " fill-opacity="1" fill-rule="nonzero"/><path fill="#008037" d="M 211.8125 145.066406 C 211.816406 145.054688 219.453125 146.890625 221.449219 139.480469 C 221.453125 139.46875 214.035156 137.429688 211.8125 145.066406 " fill-opacity="1" fill-rule="nonzero"/><path fill="#008037" d="M 256.722656 90.074219 C 256.722656 90.066406 249.769531 86.417969 246.296875 92.792969 C 246.300781 92.785156 253.015625 96.351562 256.722656 90.074219 " fill-opacity="1" fill-rule="nonzero"/><path fill="#008037" d="M 244.640625 100.296875 C 244.644531 100.296875 251.445312 104.265625 255.605469 98.269531 C 255.609375 98.269531 249.066406 94.089844 244.640625 100.296875 " fill-opacity="1" fill-rule="nonzero"/><path fill="#008037" d="M 263.054688 102.9375 C 263.054688 102.9375 269.824219 107.121094 273.964844 101.375 C 273.964844 101.378906 267.46875 96.976562 263.054688 102.9375 " fill-opacity="1" fill-rule="nonzero"/><path fill="#008037" d="M 259.890625 108.1875 C 259.894531 108.191406 266.132812 112.960938 271.230469 107.835938 C 271.230469 107.84375 265.273438 102.875 259.890625 108.1875 " fill-opacity="1" fill-rule="nonzero"/><path fill="#008037" d="M 256.082031 114.539062 C 256.082031 114.546875 262.328125 119.25 267.425781 114.046875 C 267.429688 114.050781 261.464844 109.152344 256.082031 114.539062 " fill-opacity="1" fill-rule="nonzero"/><path fill="#008037" d="M 228.6875 109.164062 C 228.6875 109.179688 228.414062 115.878906 237.089844 117.042969 C 237.089844 117.0625 237.574219 110.46875 228.6875 109.164062 " fill-opacity="1" fill-rule="nonzero"/><path fill="#008037" d="M 227.804688 117.257812 C 227.804688 117.28125 227.484375 125.234375 237.785156 126.585938 C 237.78125 126.609375 238.359375 118.761719 227.804688 117.257812 " fill-opacity="1" fill-rule="nonzero"/><path fill="#008037" d="M 242.472656 108.710938 C 242.476562 108.699219 249.878906 111.40625 252.378906 104.535156 C 252.378906 104.527344 245.207031 101.605469 242.472656 108.710938 " fill-opacity="1" fill-rule="nonzero"/><g clip-path="url(#67f37e8a98)"><path fill="#008037" d="M 47.839844 131.859375 C 47.855469 131.929688 47.722656 144.058594 64.25 142.042969 C 64.265625 142.125 64.652344 129.425781 47.839844 131.859375 " fill-opacity="1" fill-rule="nonzero"/></g><path fill="#008037" d="M 89.210938 74.230469 C 89.210938 74.25 78.804688 84.746094 88.152344 94.066406 C 88.148438 94.085938 98.5625 84.105469 89.210938 74.230469 " fill-opacity="1" fill-rule="nonzero"/><path fill="#008037" d="M 271.808594 65.679688 C 271.808594 65.625 261.164062 71.78125 270.414062 84.988281 C 270.414062 84.929688 281.007812 79.457031 271.808594 65.679688 " fill-opacity="1" fill-rule="nonzero"/><path fill="#008037" d="M 230.503906 34.601562 C 230.5 34.5625 219.738281 41.8125 229.15625 54.488281 C 229.152344 54.449219 239.878906 47.867188 230.503906 34.601562 " fill-opacity="1" fill-rule="nonzero"/><path fill="#008037" d="M 110.585938 51.617188 C 110.585938 51.617188 104.316406 57.25 109.347656 63.148438 C 109.34375 63.148438 115.589844 57.820312 110.585938 51.617188 " fill-opacity="1" fill-rule="nonzero"/><path fill="#008037" d="M 110.757812 45.871094 C 110.761719 45.898438 109.472656 53.050781 118.414062 53.820312 C 118.417969 53.847656 119.871094 46.695312 110.757812 45.871094 " fill-opacity="1" fill-rule="nonzero"/><path fill="#008037" d="M 121.761719 37.011719 C 121.757812 37.050781 113.851562 48.570312 126.300781 55.996094 C 126.300781 56.039062 134.335938 44.863281 121.761719 37.011719 " fill-opacity="1" fill-rule="nonzero"/><path fill="#008037" d="M 58.953125 101.984375 C 58.964844 102.023438 60.679688 111.035156 73.6875 107.535156 C 73.699219 107.582031 72.230469 98.152344 58.953125 101.984375 " fill-opacity="1" fill-rule="nonzero"/><path fill="#008037" d="M 108.363281 117.351562 C 108.367188 117.390625 107.894531 127.011719 120.382812 127.25 C 120.386719 127.292969 121.121094 117.5625 108.363281 117.351562 " fill-opacity="1" fill-rule="nonzero"/><path fill="#008037" d="M 99.140625 54.046875 C 99.136719 54.089844 89.796875 66.019531 101.699219 74.242188 C 101.699219 74.285156 111.125 62.765625 99.140625 54.046875 " fill-opacity="1" fill-rule="nonzero"/><path fill="#008037" d="M 50.058594 148.402344 C 50.070312 148.421875 54.929688 158.78125 71.207031 152.292969 C 71.222656 152.328125 66.691406 141.289062 50.058594 148.402344 " fill-opacity="1" fill-rule="nonzero"/><path fill="#008037" d="M 68.933594 128.152344 C 68.945312 128.230469 63.078125 140.902344 77.566406 145.320312 C 77.574219 145.394531 83.617188 132.703125 68.933594 128.152344 " fill-opacity="1" fill-rule="nonzero"/><path fill="#008037" d="M 116.53125 137.253906 C 116.53125 137.273438 118.695312 145.03125 129.097656 141.980469 C 129.101562 142 127.207031 134.105469 116.53125 137.253906 " fill-opacity="1" fill-rule="nonzero"/><path fill="#008037" d="M 118.261719 78.855469 C 118.257812 78.859375 110.605469 85.394531 117.476562 92.023438 C 117.476562 92.027344 125.125 85.84375 118.261719 78.855469 " fill-opacity="1" fill-rule="nonzero"/><path fill="#008037" d="M 111.183594 153.609375 C 111.1875 153.628906 108.121094 144.554688 96.144531 149.207031 C 96.148438 149.226562 98.824219 157.851562 111.183594 153.609375 " fill-opacity="1" fill-rule="nonzero"/><path fill="#008037" d="M 112.566406 72.527344 C 112.5625 72.527344 105.898438 77.90625 111.34375 83.648438 C 111.339844 83.648438 117.988281 78.570312 112.566406 72.527344 " fill-opacity="1" fill-rule="nonzero"/><path fill="#008037" d="M 126.167969 64.242188 C 126.171875 64.261719 123.085938 56.671875 112.925781 61.234375 C 112.933594 61.257812 115.671875 68.445312 126.167969 64.242188 " fill-opacity="1" fill-rule="nonzero"/><path fill="#008037" d="M 131.589844 73.253906 C 131.589844 73.273438 128.507812 65.621094 118.335938 70.007812 C 118.34375 70.03125 121.082031 77.296875 131.589844 73.253906 " fill-opacity="1" fill-rule="nonzero"/><path fill="#008037" d="M 137.261719 79.980469 C 137.265625 79.988281 135.105469 74.59375 127.957031 77.503906 C 127.960938 77.511719 129.886719 82.699219 137.261719 79.980469 " fill-opacity="1" fill-rule="nonzero"/><path fill="#008037" d="M 144.007812 76.816406 C 144.003906 76.816406 149.035156 72.488281 144.101562 67.890625 C 144.097656 67.890625 139.078125 72.03125 144.007812 76.816406 " fill-opacity="1" fill-rule="nonzero"/><path fill="#008037" d="M 152.257812 112.792969 C 152.257812 112.796875 157.273438 108.59375 152.355469 103.859375 C 152.355469 103.859375 147.34375 107.871094 152.257812 112.792969 " fill-opacity="1" fill-rule="nonzero"/><path fill="#008037" d="M 237.542969 134.546875 C 237.542969 134.554688 238.589844 128.851562 231.1875 127.132812 C 231.1875 127.136719 230.007812 132.636719 237.542969 134.546875 " fill-opacity="1" fill-rule="nonzero"/><path fill="#008037" d="M 143.773438 86.171875 C 143.773438 86.183594 141.621094 80.746094 134.460938 83.53125 C 134.460938 83.542969 136.390625 88.777344 143.773438 86.171875 " fill-opacity="1" fill-rule="nonzero"/><path fill="#008037" d="M 134.589844 65.765625 C 134.589844 65.769531 138.75 61.277344 133.636719 57.699219 C 133.632812 57.703125 129.460938 62.007812 134.589844 65.765625 " fill-opacity="1" fill-rule="nonzero"/><path fill="#008037" d="M 139.964844 90.441406 C 139.964844 90.441406 142.949219 94.910156 149.085938 91.566406 C 149.089844 91.578125 146.308594 87.015625 139.964844 90.441406 " fill-opacity="1" fill-rule="nonzero"/><path fill="#008037" d="M 138.382812 71.09375 C 138.378906 71.089844 143.636719 67.703125 140.011719 62.828125 C 140.007812 62.824219 134.792969 66.046875 138.382812 71.09375 " fill-opacity="1" fill-rule="nonzero"/><path fill="#008037" d="M 99.039062 104.445312 C 99.035156 104.4375 90.699219 109.011719 94.5625 116.539062 C 94.554688 116.53125 102.796875 112.324219 99.039062 104.445312 " fill-opacity="1" fill-rule="nonzero"/><path fill="#008037" d="M 103.144531 112.445312 C 103.140625 112.4375 94.796875 116.898438 98.660156 124.503906 C 98.652344 124.496094 106.902344 120.394531 103.144531 112.445312 " fill-opacity="1" fill-rule="nonzero"/><path fill="#008037" d="M 104.804688 121.800781 C 104.804688 121.800781 98.8125 126.5 103.609375 131.730469 C 103.609375 131.730469 109.578125 127.292969 104.804688 121.800781 " fill-opacity="1" fill-rule="nonzero"/><path fill="#008037" d="M 78.917969 157.230469 C 78.921875 157.226562 75.089844 152.476562 68.039062 157.511719 C 68.042969 157.507812 71.585938 162.132812 78.917969 157.230469 " fill-opacity="1" fill-rule="nonzero"/><path fill="#008037" d="M 97.960938 165.101562 C 97.960938 165.101562 94.113281 160.113281 87.011719 164.90625 C 87.015625 164.90625 90.578125 169.761719 97.960938 165.101562 " fill-opacity="1" fill-rule="nonzero"/><path fill="#008037" d="M 85.679688 152.121094 C 85.679688 152.136719 88.84375 145.78125 81.433594 143.929688 C 81.4375 143.949219 78.171875 150.023438 85.679688 152.121094 " fill-opacity="1" fill-rule="nonzero"/><path fill="#008037" d="M 93.40625 155.34375 C 93.40625 155.359375 96.582031 149.027344 89.152344 147.027344 C 89.152344 147.042969 85.878906 153.101562 93.40625 155.34375 " fill-opacity="1" fill-rule="nonzero"/><path fill="#008037" d="M 95.582031 136.953125 C 95.585938 136.960938 92.085938 130.1875 82.691406 135.25 C 82.699219 135.257812 85.859375 141.742188 95.582031 136.953125 " fill-opacity="1" fill-rule="nonzero"/><path fill="#008037" d="M 95.6875 96.007812 C 95.683594 96.003906 88.714844 100.195312 92.304688 106.378906 C 92.300781 106.371094 99.199219 102.488281 95.6875 96.007812 " fill-opacity="1" fill-rule="nonzero"/><path fill="#008037" d="M 119.910156 158.742188 C 119.914062 158.742188 116.042969 153.9375 109.375 158.492188 C 109.378906 158.492188 112.984375 163.179688 119.910156 158.742188 " fill-opacity="1" fill-rule="nonzero"/><path fill="#008037" d="M 119.21875 204.519531 C 119.21875 204.519531 115.363281 199.640625 108.71875 204.027344 C 108.71875 204.023438 112.316406 208.804688 119.21875 204.519531 " fill-opacity="1" fill-rule="nonzero"/><path fill="#008037" d="M 69.039062 120.703125 C 69.039062 120.714844 70.054688 126.941406 78.589844 124.253906 C 78.59375 124.273438 77.769531 117.921875 69.039062 120.703125 " fill-opacity="1" fill-rule="nonzero"/><path fill="#008037" d="M 110.121094 64.207031 C 110.117188 64.195312 102.621094 68.242188 106.019531 75.039062 C 106.015625 75.027344 113.421875 71.308594 110.121094 64.207031 " fill-opacity="1" fill-rule="nonzero"/><path fill="#008037" d="M 158.800781 160.757812 C 158.800781 160.757812 152.832031 155.125 145.324219 161.457031 C 145.324219 161.457031 150.964844 166.949219 158.800781 160.757812 " fill-opacity="1" fill-rule="nonzero"/><path fill="#008037" d="M 121.722656 171.628906 C 121.71875 171.628906 114.9375 176.140625 119.785156 182.464844 C 119.785156 182.46875 126.527344 178.238281 121.722656 171.628906 " fill-opacity="1" fill-rule="nonzero"/><path fill="#008037" d="M 129.210938 173.796875 C 129.210938 173.796875 123.972656 177.21875 127.710938 182.15625 C 127.710938 182.15625 132.914062 178.949219 129.210938 173.796875 " fill-opacity="1" fill-rule="nonzero"/><path fill="#008037" d="M 180.085938 127.695312 C 180.085938 127.683594 172.519531 130.527344 175.890625 138.042969 C 175.886719 138.027344 183.359375 135.46875 180.085938 127.695312 " fill-opacity="1" fill-rule="nonzero"/><path fill="#008037" d="M 111.511719 130.230469 C 111.515625 130.238281 114.277344 136.128906 122.402344 132.570312 C 122.40625 132.578125 119.875 126.570312 111.511719 130.230469 " fill-opacity="1" fill-rule="nonzero"/><path fill="#008037" d="M 125.441406 146.292969 C 125.445312 146.304688 129.105469 154.074219 139.632812 149.746094 C 139.636719 149.761719 136.28125 141.8125 125.441406 146.292969 " fill-opacity="1" fill-rule="nonzero"/><path fill="#008037" d="M 135.199219 154.511719 C 135.199219 154.515625 140.242188 161.710938 150.042969 156.234375 C 150.046875 156.246094 145.332031 148.855469 135.199219 154.511719 " fill-opacity="1" fill-rule="nonzero"/><path fill="#008037" d="M 159.449219 152.023438 C 159.449219 152.027344 166.28125 145.738281 158.726562 139.160156 C 158.722656 139.167969 151.886719 145.183594 159.449219 152.023438 " fill-opacity="1" fill-rule="nonzero"/><path fill="#008037" d="M 148.902344 147.078125 C 148.898438 147.089844 154.929688 140.019531 146.492188 134.460938 C 146.492188 134.46875 140.417969 141.242188 148.902344 147.078125 " fill-opacity="1" fill-rule="nonzero"/><path fill="#008037" d="M 139.320312 140.480469 C 139.320312 140.488281 144.960938 134.203125 137.597656 129.109375 C 137.59375 129.121094 131.925781 135.136719 139.320312 140.480469 " fill-opacity="1" fill-rule="nonzero"/><path fill="#008037" d="M 130.234375 134.015625 C 130.234375 134.027344 135.5 127.425781 127.816406 122.890625 C 127.816406 122.898438 122.496094 129.222656 130.234375 134.015625 " fill-opacity="1" fill-rule="nonzero"/><path fill="#008037" d="M 145.109375 109.691406 C 145.105469 109.699219 151.972656 102.082031 143.007812 95.890625 C 143.007812 95.902344 136.109375 103.203125 145.109375 109.691406 " fill-opacity="1" fill-rule="nonzero"/><path fill="#008037" d="M 133.949219 103.089844 C 133.949219 103.097656 141.332031 96.25 133.597656 89.640625 C 133.597656 89.648438 126.222656 96.207031 133.949219 103.089844 " fill-opacity="1" fill-rule="nonzero"/><path fill="#008037" d="M 124.882812 96.851562 C 124.882812 96.851562 132.277344 91.132812 126.15625 84.492188 C 126.152344 84.492188 118.796875 89.972656 124.882812 96.851562 " fill-opacity="1" fill-rule="nonzero"/><path fill="#008037" d="M 296.996094 164.039062 C 296.992188 164.074219 300.199219 172.945312 289.078125 173.34375 C 289.078125 173.378906 285.699219 164.488281 296.996094 164.039062 " fill-opacity="1" fill-rule="nonzero"/><path fill="#008037" d="M 306.757812 162.785156 C 306.753906 162.8125 309.824219 170.273438 300.644531 170.761719 C 300.644531 170.789062 297.445312 163.34375 306.757812 162.785156 " fill-opacity="1" fill-rule="nonzero"/><path fill="#008037" d="M 314.636719 159.054688 C 314.636719 159.078125 319.460938 166.175781 311.605469 168.402344 C 311.601562 168.425781 306.710938 161.445312 314.636719 159.054688 " fill-opacity="1" fill-rule="nonzero"/><path fill="#008037" d="M 250.910156 168.753906 C 250.90625 168.785156 249.480469 159 262.003906 160.019531 C 262 160.050781 263.695312 169.363281 250.910156 168.753906 " fill-opacity="1" fill-rule="nonzero"/><path fill="#008037" d="M 265.84375 171.921875 C 265.835938 171.957031 263.324219 162.554688 275.050781 162.640625 C 275.050781 162.675781 277.789062 171.613281 265.84375 171.921875 " fill-opacity="1" fill-rule="nonzero"/><path fill="#008037" d="M 278.675781 172.90625 C 278.675781 172.9375 275.320312 164.445312 285.605469 163.636719 C 285.601562 163.664062 289.121094 171.757812 278.675781 172.90625 " fill-opacity="1" fill-rule="nonzero"/><path fill="#008037" d="M 134.214844 125.5625 C 134.21875 125.546875 142.871094 130.828125 150.726562 121.824219 C 150.730469 121.8125 142.417969 116.21875 134.214844 125.5625 " fill-opacity="1" fill-rule="nonzero"/><path fill="#008037" d="M 122.632812 119.953125 C 122.632812 119.9375 131.277344 124.984375 139.113281 115.824219 C 139.117188 115.8125 130.8125 110.441406 122.632812 119.953125 " fill-opacity="1" fill-rule="nonzero"/><path fill="#008037" d="M 87.402344 142.765625 C 87.40625 142.765625 91.898438 149.453125 101.664062 143.707031 C 101.671875 143.710938 97.460938 136.789062 87.402344 142.765625 " fill-opacity="1" fill-rule="nonzero"/><path fill="#008037" d="M 74.875 162.273438 C 74.878906 162.257812 81.070312 167.578125 89.511719 160.269531 C 89.515625 160.257812 83.609375 154.71875 74.875 162.273438 " fill-opacity="1" fill-rule="nonzero"/><path fill="#008037" d="M 48.097656 161.105469 C 48.097656 161.085938 54.21875 165.914062 62.570312 158.3125 C 62.570312 158.292969 56.726562 153.230469 48.097656 161.105469 " fill-opacity="1" fill-rule="nonzero"/><path fill="#008037" d="M 115.964844 113.085938 C 115.96875 113.074219 122.582031 116.808594 128.5625 109.679688 C 128.5625 109.671875 122.214844 105.722656 115.964844 113.085938 " fill-opacity="1" fill-rule="nonzero"/><path fill="#008037" d="M 106.640625 105.5625 C 106.640625 105.558594 111.890625 110.828125 119.832031 104.699219 C 119.835938 104.699219 114.855469 99.195312 106.640625 105.5625 " fill-opacity="1" fill-rule="nonzero"/><path fill="#008037" d="M 92.761719 186.476562 C 92.761719 186.5 91.265625 195.003906 102.070312 195.371094 C 102.074219 195.394531 103.777344 186.898438 92.761719 186.476562 " fill-opacity="1" fill-rule="nonzero"/><path fill="#008037" d="M 133.820312 192.8125 C 133.820312 192.824219 135.382812 185.546875 126.367188 184.609375 C 126.371094 184.625 124.640625 191.601562 133.820312 192.8125 " fill-opacity="1" fill-rule="nonzero"/><path fill="#008037" d="M 97.667969 199.976562 C 97.671875 199.964844 91.96875 195.789062 85.691406 202.125 C 85.691406 202.113281 91.089844 206.273438 97.667969 199.976562 " fill-opacity="1" fill-rule="nonzero"/><path fill="#008037" d="M 148.089844 186.6875 C 148.085938 186.695312 151.3125 181.359375 144.824219 178.425781 C 144.824219 178.4375 141.527344 183.554688 148.089844 186.6875 " fill-opacity="1" fill-rule="nonzero"/><path fill="#008037" d="M 124.582031 194.769531 C 124.582031 194.789062 126.390625 186.414062 116.042969 185.46875 C 116.042969 185.488281 114.035156 193.496094 124.582031 194.769531 " fill-opacity="1" fill-rule="nonzero"/><path fill="#008037" d="M 113.800781 195.84375 C 113.800781 195.867188 115.542969 187.730469 105.492188 186.976562 C 105.492188 187 103.554688 194.765625 113.800781 195.84375 " fill-opacity="1" fill-rule="nonzero"/><path fill="#008037" d="M 135.535156 181.132812 C 135.535156 181.148438 133.566406 187.984375 142.109375 189.53125 C 142.109375 189.546875 144.238281 182.816406 135.535156 181.132812 " fill-opacity="1" fill-rule="nonzero"/><path fill="#008037" d="M 79.886719 124.601562 C 79.890625 124.628906 80.71875 133.152344 92.179688 130.453125 C 92.1875 130.480469 91.605469 121.757812 79.886719 124.601562 " fill-opacity="1" fill-rule="nonzero"/><path fill="#008037" d="M 77.800781 115.992188 C 77.808594 116.019531 78.898438 123.949219 89.679688 120.964844 C 89.6875 120.992188 88.824219 112.863281 77.800781 115.992188 " fill-opacity="1" fill-rule="nonzero"/><path fill="#008037" d="M 76.582031 107.050781 C 76.585938 107.070312 77.566406 114.191406 87.253906 111.386719 C 87.261719 111.414062 86.488281 104.128906 76.582031 107.050781 " fill-opacity="1" fill-rule="nonzero"/><path fill="#008037" d="M 79.65625 95.695312 C 79.660156 95.710938 77.8125 101.65625 85.042969 102 C 85.046875 102.019531 87.007812 96.109375 79.65625 95.695312 " fill-opacity="1" fill-rule="nonzero"/><path fill="#008037" d="M 54.566406 114.726562 C 54.570312 114.734375 56.371094 119.65625 63.570312 116.164062 C 63.574219 116.167969 61.949219 111.117188 54.566406 114.726562 " fill-opacity="1" fill-rule="nonzero"/><path fill="#008037" d="M 100.007812 99.214844 C 100.007812 99.210938 105.25 104.363281 113.179688 98.109375 C 113.179688 98.109375 108.203125 92.714844 100.007812 99.214844 " fill-opacity="1" fill-rule="nonzero"/><path fill="#008037" d="M 95.855469 89.320312 C 95.855469 89.335938 98.03125 96.191406 107.570312 92.578125 C 107.574219 92.597656 105.636719 85.550781 95.855469 89.320312 " fill-opacity="1" fill-rule="nonzero"/><path fill="#008037" d="M 66.902344 87.628906 C 66.914062 87.6875 62.566406 98.300781 75.125 99.605469 C 75.136719 99.667969 79.640625 88.992188 66.902344 87.628906 " fill-opacity="1" fill-rule="nonzero"/><path fill="#008037" d="M 76.875 75.679688 C 76.878906 75.707031 70.59375 84.242188 79.65625 88.300781 C 79.65625 88.328125 86.011719 80.007812 76.875 75.679688 " fill-opacity="1" fill-rule="nonzero"/><path fill="#008037" d="M 94.664062 81.003906 C 94.667969 81.019531 95.714844 86.769531 103.519531 84.425781 C 103.519531 84.441406 102.660156 78.59375 94.664062 81.003906 " fill-opacity="1" fill-rule="nonzero"/><path fill="#008037" d="M 246.296875 189.945312 C 246.292969 189.949219 248.527344 184.390625 257.328125 187.582031 C 257.328125 187.589844 255.363281 192.953125 246.296875 189.945312 " fill-opacity="1" fill-rule="nonzero"/><path fill="#008037" d="M 253.046875 196.84375 C 253.046875 196.859375 252.992188 190.800781 262.191406 191.359375 C 262.1875 191.371094 262.460938 197.15625 253.046875 196.84375 " fill-opacity="1" fill-rule="nonzero"/><path fill="#008037" d="M 262.203125 198.375 C 262.203125 198.390625 260.832031 192.367188 269.769531 191.453125 C 269.769531 191.46875 271.324219 197.199219 262.203125 198.375 " fill-opacity="1" fill-rule="nonzero"/><path fill="#008037" d="M 271.707031 199.214844 C 271.703125 199.234375 269.355469 193.367188 277.867188 191.390625 C 277.867188 191.410156 280.359375 196.976562 271.707031 199.214844 " fill-opacity="1" fill-rule="nonzero"/><path fill="#008037" d="M 280.960938 198.003906 C 280.960938 198.027344 279.371094 192.058594 288.191406 191.144531 C 288.191406 191.164062 289.957031 196.828125 280.960938 198.003906 " fill-opacity="1" fill-rule="nonzero"/><path fill="#008037" d="M 289.898438 198.804688 C 289.890625 198.832031 289.105469 191.449219 300.292969 191.933594 C 300.285156 191.960938 301.335938 198.925781 289.898438 198.804688 " fill-opacity="1" fill-rule="nonzero"/><path fill="#008037" d="M 267.71875 217.152344 C 267.71875 217.125 276.421875 212.539062 285.109375 223.308594 C 285.109375 223.28125 276.851562 227.972656 267.71875 217.152344 " fill-opacity="1" fill-rule="nonzero"/><path fill="#008037" d="M 238.503906 187.933594 C 238.503906 187.945312 234.941406 181.144531 242.691406 176.097656 C 242.695312 176.113281 246.347656 182.574219 238.503906 187.933594 " fill-opacity="1" fill-rule="nonzero"/><path fill="#008037" d="M 231.492188 192.097656 C 231.492188 192.101562 226.28125 186.820312 232.089844 179.105469 C 232.089844 179.113281 237.3125 184.085938 231.492188 192.097656 " fill-opacity="1" fill-rule="nonzero"/><path fill="#008037" d="M 264.730469 186.742188 C 264.734375 186.71875 254.921875 186.808594 255.441406 176.761719 C 255.441406 176.738281 265.046875 176.515625 264.730469 186.742188 " fill-opacity="1" fill-rule="nonzero"/><path fill="#008037" d="M 276.984375 187.746094 C 276.992188 187.722656 267.203125 187.628906 267.726562 177.675781 C 267.730469 177.652344 277.308594 177.621094 276.984375 187.746094 " fill-opacity="1" fill-rule="nonzero"/><g clip-path="url(#594c3882ad)"><path fill="#008037" d="M 326.933594 161.019531 C 326.925781 161.054688 329.882812 169.335938 318.679688 168.238281 C 318.671875 168.277344 315.554688 159.886719 326.933594 161.019531 " fill-opacity="1" fill-rule="nonzero"/></g><path fill="#008037" d="M 324.609375 145.929688 C 324.597656 145.984375 326.085938 156.984375 310.824219 152.921875 C 310.808594 152.980469 309.089844 141.574219 324.609375 145.929688 " fill-opacity="1" fill-rule="nonzero"/><path fill="#008037" d="M 286.570312 187.101562 C 286.570312 187.089844 279.097656 186.882812 279.503906 179.34375 C 279.507812 179.324219 286.816406 179.421875 286.570312 187.101562 " fill-opacity="1" fill-rule="nonzero"/><path fill="#008037" d="M 298.726562 184.683594 C 298.726562 184.660156 291.132812 186.035156 289.324219 178.46875 C 289.324219 178.449219 296.710938 176.984375 298.726562 184.683594 " fill-opacity="1" fill-rule="nonzero"/><path fill="#008037" d="M 308.121094 183.300781 C 308.125 183.277344 300.554688 184.496094 298.75 176.964844 C 298.753906 176.945312 306.113281 175.640625 308.121094 183.300781 " fill-opacity="1" fill-rule="nonzero"/><path fill="#008037" d="M 318.035156 178.75 C 318.035156 178.726562 311.652344 182.203125 306.742188 175.796875 C 306.742188 175.777344 312.886719 172.199219 318.035156 178.75 " fill-opacity="1" fill-rule="nonzero"/><path fill="#008037" d="M 276.207031 211.269531 C 276.210938 211.253906 268.34375 212.460938 267.3125 204.816406 C 267.3125 204.800781 274.980469 203.496094 276.207031 211.269531 " fill-opacity="1" fill-rule="nonzero"/><path fill="#008037" d="M 268.210938 224.042969 C 268.214844 224.027344 260.097656 224.359375 260.335938 216.734375 C 260.335938 216.722656 268.277344 216.28125 268.210938 224.042969 " fill-opacity="1" fill-rule="nonzero"/><path fill="#008037" d="M 256.257812 221.667969 C 256.257812 221.664062 248.289062 219.433594 251.691406 212.570312 C 251.691406 212.566406 259.554688 214.636719 256.257812 221.667969 " fill-opacity="1" fill-rule="nonzero"/><path fill="#008037" d="M 245.984375 217.410156 C 245.988281 217.414062 239.175781 212.945312 245.183594 207.683594 C 245.183594 207.691406 251.96875 211.945312 245.984375 217.410156 " fill-opacity="1" fill-rule="nonzero"/><path fill="#008037" d="M 235.546875 212.734375 C 235.546875 212.746094 231.835938 206.027344 240.207031 204.164062 C 240.207031 204.179688 244.023438 210.636719 235.546875 212.734375 " fill-opacity="1" fill-rule="nonzero"/><path fill="#008037" d="M 266.988281 210.335938 C 266.988281 210.316406 259.105469 211.632812 258.066406 203.945312 C 258.070312 203.933594 265.753906 202.519531 266.988281 210.335938 " fill-opacity="1" fill-rule="nonzero"/><path fill="#008037" d="M 285.941406 210.050781 C 285.945312 210.035156 278.09375 211.121094 277.066406 203.519531 C 277.070312 203.5 284.722656 202.324219 285.941406 210.050781 " fill-opacity="1" fill-rule="nonzero"/><path fill="#008037" d="M 296.585938 205.621094 C 296.585938 205.597656 289.664062 209.011719 285.34375 202.492188 C 285.34375 202.472656 292.023438 198.980469 296.585938 205.621094 " fill-opacity="1" fill-rule="nonzero"/><path fill="#008037" d="M 324.554688 174.132812 C 324.554688 174.121094 319.824219 177.230469 315.328125 172.398438 C 315.328125 172.386719 319.867188 169.1875 324.554688 174.132812 " fill-opacity="1" fill-rule="nonzero"/><path fill="#008037" d="M 51.351562 167.476562 C 51.355469 167.453125 59.027344 175.601562 72.15625 165.832031 C 72.164062 165.816406 64.847656 157.199219 51.351562 167.476562 " fill-opacity="1" fill-rule="nonzero"/><path fill="#008037" d="M 73.839844 194.226562 C 73.839844 194.210938 80.203125 201.933594 91.617188 194.347656 C 91.621094 194.339844 85.609375 186.351562 73.839844 194.226562 " fill-opacity="1" fill-rule="nonzero"/><path fill="#008037" d="M 87.554688 208.859375 C 87.554688 208.84375 94.839844 215.65625 104.84375 207.570312 C 104.847656 207.554688 97.917969 200.53125 87.554688 208.859375 " fill-opacity="1" fill-rule="nonzero"/><path fill="#008037" d="M 82.347656 181.773438 C 82.34375 181.746094 91.628906 182.207031 94.042969 172.761719 C 94.039062 172.738281 85.007812 172.121094 82.347656 181.773438 " fill-opacity="1" fill-rule="nonzero"/><path fill="#008037" d="M 108.652344 182.390625 C 108.648438 182.378906 117.835938 179.066406 114.929688 170.222656 C 114.925781 170.210938 105.886719 173.3125 108.652344 182.390625 " fill-opacity="1" fill-rule="nonzero"/><path fill="#008037" d="M 95.367188 184.378906 C 95.363281 184.355469 106.042969 182.800781 104.378906 172.6875 C 104.371094 172.664062 93.898438 174.058594 95.367188 184.378906 " fill-opacity="1" fill-rule="nonzero"/><path fill="#008037" d="M 72.261719 176.902344 C 72.261719 176.878906 79.320312 179.980469 84.964844 172.25 C 84.964844 172.234375 78.167969 168.976562 72.261719 176.902344 " fill-opacity="1" fill-rule="nonzero"/><path fill="#008037" d="M 65.816406 173.007812 C 65.816406 172.996094 71.039062 175.925781 76.179688 170.003906 C 76.179688 169.992188 71.175781 166.941406 65.816406 173.007812 " fill-opacity="1" fill-rule="nonzero"/><path fill="#008037" d="M 99.683594 214.390625 C 99.683594 214.382812 104.949219 217.855469 110.132812 212.226562 C 110.132812 212.222656 105.097656 208.65625 99.683594 214.390625 " fill-opacity="1" fill-rule="nonzero"/><path fill="#008037" d="M 133.210938 216.96875 C 133.203125 216.964844 141.859375 212.816406 137.335938 204.367188 C 137.332031 204.363281 128.777344 208.273438 133.210938 216.96875 " fill-opacity="1" fill-rule="nonzero"/><path fill="#008037" d="M 146.695312 212.691406 C 146.691406 212.695312 154.996094 206.226562 146.433594 199.226562 C 146.429688 199.234375 138.132812 205.410156 146.695312 212.691406 " fill-opacity="1" fill-rule="nonzero"/><path fill="#008037" d="M 120.53125 218.050781 C 120.53125 218.042969 129.210938 217.046875 128.816406 208.402344 C 128.816406 208.390625 120.320312 209.207031 120.53125 218.050781 " fill-opacity="1" fill-rule="nonzero"/><path fill="#008037" d="M 111.765625 218.144531 C 111.765625 218.136719 118.726562 217.894531 119.207031 210.929688 C 119.207031 210.925781 112.414062 211.027344 111.765625 218.144531 " fill-opacity="1" fill-rule="nonzero"/></svg>